<svg xmlns="http://www.w3.org/2000/svg" viewBox="0 0 512 512">
  <defs>
    <linearGradient id="bg" x1="0%" y1="0%" x2="100%" y2="100%">
      <stop offset="0%" style="stop-color:#ec4899"/>
      <stop offset="100%" style="stop-color:#f43f5e"/>
    </linearGradient>
  </defs>
  <rect width="512" height="512" rx="96" fill="url(#bg)"/>
  <!-- 달력 아이콘 -->
  <rect x="96" y="140" width="320" height="280" rx="24" fill="white" opacity="0.95"/>
  <rect x="96" y="140" width="320" height="72" rx="24" fill="white"/>
  <rect x="96" y="188" width="320" height="24" fill="white"/>
  <!-- 달력 상단 바 -->
  <rect x="96" y="140" width="320" height="72" rx="24" fill="#fce7f3"/>
  <rect x="96" y="188" width="320" height="24" fill="#fce7f3"/>
  <!-- 달력 고리 -->
  <rect x="180" y="116" width="16" height="56" rx="8" fill="white"/>
  <rect x="316" y="116" width="16" height="56" rx="8" fill="white"/>
  <!-- 하트 -->
  <path d="M256 340 C256 340 196 295 196 265 C196 245 212 232 232 232 C246 232 254 240 256 244 C258 240 266 232 280 232 C300 232 316 245 316 265 C316 295 256 340 256 340Z" fill="#ec4899"/>
  <!-- 날짜 점들 -->
  <circle cx="160" cy="260" r="8" fill="#fda4af" opacity="0.6"/>
  <circle cx="208" cy="260" r="8" fill="#fda4af" opacity="0.6"/>
  <circle cx="304" cy="260" r="8" fill="#fda4af" opacity="0.6"/>
  <circle cx="352" cy="260" r="8" fill="#fda4af" opacity="0.6"/>
  <circle cx="160" cy="380" r="8" fill="#fda4af" opacity="0.6"/>
  <circle cx="208" cy="380" r="8" fill="#fda4af" opacity="0.6"/>
  <circle cx="304" cy="380" r="8" fill="#fda4af" opacity="0.6"/>
  <circle cx="352" cy="380" r="8" fill="#fda4af" opacity="0.6"/>
</svg>
